STARTFONT 2.1
FONT -Monotype-Times New Roman-Regular-I-Normal--25-180-100-100-P-137-iso8859-5
SIZE 18 100 100
FONTBOUNDINGBOX 34 28 -4 -6

STARTPROPERTIES 24
FOUNDRY "Monotype"
FAMILY_NAME "Times New Roman"
WEIGHT_NAME "Regular"
SLANT "I"
SETWIDTH_NAME "Normal"
ADD_STYLE_NAME ""
PIXEL_SIZE 25
POINT_SIZE 180
RESOLUTION_X 100
RESOLUTION_Y 100
SPACING "P"
AVERAGE_WIDTH 137
CHARSET_REGISTRY "iso8859"
CHARSET_ENCODING "5"
FACE_NAME "Times New Roman Inclined ISO Latin Cyrillic"
_DEC_DEVICE_FONTNAMES "PS=timesnewroman-in-latcyrillic"
COPYRIGHT "Copyright (c) 1993 Monotype Typography Ltd."
CAP_HEIGHT 18
X_HEIGHT 12
WEIGHT 10
QUAD_WIDTH 17
DEFAULT_CHAR 160
FONT_DESCENT 6
FONT_ASCENT 22
ENDPROPERTIES

CHARS 191

STARTCHAR space
ENCODING 32
SWIDTH 250 0
DWIDTH 6 0
BBX 0 0 0 0
BITMAP
ENDCHAR

STARTCHAR exclam
ENCODING 33
SWIDTH 271 0
DWIDTH 7 0
BBX 6 17 1 0
BITMAP
0C
0C
1C
18
18
18
10
10
20
20
20
20
40
00
00
C0
C0
ENDCHAR

STARTCHAR quotedbl
ENCODING 34
SWIDTH 417 0
DWIDTH 10 0
BBX 8 7 4 10
BITMAP
63
67
66
C6
C4
84
84
ENDCHAR

STARTCHAR numbersign
ENCODING 35
SWIDTH 667 0
DWIDTH 17 0
BBX 14 18 2 -1
BITMAP
0418
0418
0C18
0C10
0810
FFFC
0830
1830
1820
1020
1060
FFFC
FFFC
3040
3040
20C0
20C0
60C0
ENDCHAR

STARTCHAR dollar
ENCODING 36
SWIDTH 500 0
DWIDTH 13 0
BBX 11 19 1 -1
BITMAP
0080
0780
1960
1120
3120
3220
3A00
1C00
0E00
0700
0580
05C0
08C0
88C0
88C0
9180
D300
1C00
2000
ENDCHAR

STARTCHAR percent
ENCODING 37
SWIDTH 823 0
DWIDTH 21 0
BBX 20 18 1 -1
BITMAP
0E0030
110040
210080
610100
630200
420400
420800
6C1000
1020E0
004110
008210
010210
020630
040430
080420
1006C0
600100
C00000
ENDCHAR

STARTCHAR ampersand
ENCODING 38
SWIDTH 719 0
DWIDTH 18 0
BBX 17 17 1 0
BITMAP
007800
00CC00
008C00
018C00
019800
01B000
01C000
07C000
19CF80
30C600
60CC00
60E800
E0F000
E07000
F07000
78D980
3F1E00
ENDCHAR

STARTCHAR quoteright
ENCODING 39
SWIDTH 271 0
DWIDTH 7 0
BBX 3 5 4 12
BITMAP
60
60
20
40
80
ENDCHAR

STARTCHAR parenleft
ENCODING 40
SWIDTH 500 0
DWIDTH 13 0
BBX 9 23 4 -5
BITMAP
0180
0200
0400
0800
0800
1000
3000
2000
6000
4000
4000
C000
C000
8000
8000
8000
8000
8000
8000
8000
4000
4000
4000
ENDCHAR

STARTCHAR parenright
ENCODING 41
SWIDTH 500 0
DWIDTH 13 0
BBX 8 23 1 -5
BITMAP
02
02
01
01
01
01
01
01
01
01
01
03
02
02
06
04
04
08
18
10
20
40
80
ENDCHAR

STARTCHAR asterisk
ENCODING 42
SWIDTH 500 0
DWIDTH 13 0
BBX 9 10 3 8
BITMAP
0C00
0C00
CC80
E580
3600
1C00
F780
E980
0C00
0C00
ENDCHAR

STARTCHAR plus
ENCODING 43
SWIDTH 667 0
DWIDTH 17 0
BBX 14 14 2 1
BITMAP
0300
0300
0300
0300
0300
0300
FFFC
FFFC
0300
0300
0300
0300
0300
0300
ENDCHAR

STARTCHAR comma
ENCODING 44
SWIDTH 266 0
DWIDTH 7 0
BBX 3 5 0 -3
BITMAP
60
60
20
40
80
ENDCHAR

STARTCHAR minus
ENCODING 45
SWIDTH 667 0
DWIDTH 17 0
BBX 13 2 3 7
BITMAP
FFF8
FFF8
ENDCHAR

STARTCHAR period
ENCODING 46
SWIDTH 271 0
DWIDTH 7 0
BBX 3 2 1 0
BITMAP
E0
E0
ENDCHAR

STARTCHAR slash
ENCODING 47
SWIDTH 281 0
DWIDTH 7 0
BBX 13 19 -2 -1
BITMAP
0018
0030
0020
0060
00C0
00C0
0180
0100
0300
0200
0600
0C00
0C00
1800
1000
3000
2000
6000
C000
ENDCHAR

STARTCHAR zero
ENCODING 48
SWIDTH 500 0
DWIDTH 13 0
BBX 11 17 2 0
BITMAP
0380
0C40
1840
3060
3060
6060
6060
6060
E0E0
C0C0
C0C0
C0C0
C180
C180
4300
6600
1800
ENDCHAR

STARTCHAR one
ENCODING 49
SWIDTH 500 0
DWIDTH 13 0
BBX 9 17 2 0
BITMAP
0180
0F80
0300
0300
0300
0600
0600
0600
0C00
0C00
0C00
1800
1800
1800
1800
3800
FE00
ENDCHAR

STARTCHAR two
ENCODING 50
SWIDTH 500 0
DWIDTH 13 0
BBX 12 17 0 0
BITMAP
03C0
07E0
1870
0030
0030
0030
0020
0060
00C0
0080
0100
0200
0400
1800
2040
7FC0
FF80
ENDCHAR

STARTCHAR three
ENCODING 51
SWIDTH 500 0
DWIDTH 13 0
BBX 12 17 0 0
BITMAP
03E0
0470
0430
0030
0070
00E0
0180
1F80
03C0
01C0
00C0
00C0
00C0
0080
0180
F300
7C00
ENDCHAR

STARTCHAR four
ENCODING 52
SWIDTH 500 0
DWIDTH 13 0
BBX 12 17 1 0
BITMAP
0010
0030
0060
00E0
0160
02C0
04C0
08C0
1180
2180
4180
FFE0
FFC0
0300
0700
0600
0600
ENDCHAR

STARTCHAR five
ENCODING 53
SWIDTH 500 0
DWIDTH 13 0
BBX 12 17 1 0
BITMAP
07F0
07E0
0400
0800
0E00
1F00
0380
0180
00C0
00C0
00C0
00C0
0080
0180
0100
E600
7800
ENDCHAR

STARTCHAR six
ENCODING 54
SWIDTH 500 0
DWIDTH 13 0
BBX 12 17 1 0
BITMAP
0070
0180
0300
0E00
1C00
3000
3700
7180
60C0
E0C0
C0C0
C0C0
C0C0
C180
4100
6200
1C00
ENDCHAR

STARTCHAR seven
ENCODING 55
SWIDTH 500 0
DWIDTH 13 0
BBX 11 17 3 0
BITMAP
3FE0
7FC0
40C0
8080
0100
0300
0200
0600
0400
0800
0800
1000
3000
2000
4000
C000
4000
ENDCHAR

STARTCHAR eight
ENCODING 56
SWIDTH 500 0
DWIDTH 13 0
BBX 12 17 1 0
BITMAP
0380
0C60
0830
1830
1830
0C60
0EC0
0700
1B00
2180
61C0
C0C0
C0C0
C0C0
4080
6300
1C00
ENDCHAR

STARTCHAR nine
ENCODING 57
SWIDTH 500 0
DWIDTH 13 0
BBX 11 17 2 0
BITMAP
0780
1840
3040
3060
6060
6060
6060
60E0
60C0
31C0
1E80
0380
0700
0E00
1800
7000
8000
ENDCHAR

STARTCHAR colon
ENCODING 58
SWIDTH 333 0
DWIDTH 8 0
BBX 6 11 1 0
BITMAP
1C
1C
00
00
00
00
00
00
00
E0
E0
ENDCHAR

STARTCHAR semicolon
ENCODING 59
SWIDTH 333 0
DWIDTH 8 0
BBX 6 14 1 -3
BITMAP
1C
08
00
00
00
00
00
00
00
60
60
20
40
80
ENDCHAR

STARTCHAR less
ENCODING 60
SWIDTH 667 0
DWIDTH 17 0
BBX 13 13 3 2
BITMAP
0008
0038
01F0
0780
1E00
F000
C000
F000
1C00
0780
01E0
0038
0008
ENDCHAR

STARTCHAR equal
ENCODING 61
SWIDTH 667 0
DWIDTH 17 0
BBX 13 8 3 4
BITMAP
FFF8
FFF8
0000
0000
0000
0000
FFF8
FFF8
ENDCHAR

STARTCHAR greater
ENCODING 62
SWIDTH 667 0
DWIDTH 17 0
BBX 13 13 3 2
BITMAP
8000
E000
7800
1E00
03C0
00F0
0018
00F0
03C0
1F00
7800
E000
8000
ENDCHAR

STARTCHAR question
ENCODING 63
SWIDTH 385 0
DWIDTH 10 0
BBX 8 18 3 0
BITMAP
1C
22
63
63
03
07
06
0C
18
10
20
20
40
00
00
40
C0
C0
ENDCHAR

STARTCHAR at
ENCODING 64
SWIDTH 917 0
DWIDTH 23 0
BBX 22 23 1 -6
BITMAP
00FF00
0300C0
040020
180010
300010
203988
404708
40C308
C18308
830608
830608
860610
860C10
861C20
862C20
47CCC4
438708
600008
200010
100020
0C0040
030380
00FC00
ENDCHAR

STARTCHAR A
ENCODING 65
SWIDTH 719 0
DWIDTH 18 0
BBX 16 17 0 0
BITMAP
0002
0006
000C
000C
001C
002C
004C
00CC
008C
011C
021C
07FC
0C1C
081C
1018
201C
F87F
ENDCHAR

STARTCHAR B
ENCODING 66
SWIDTH 667 0
DWIDTH 17 0
BBX 17 17 0 0
BITMAP
07FE00
01C700
018380
018380
038380
038700
030E00
07F000
061C00
060E00
060E00
0C0E00
0C0E00
0C0C00
1C1C00
187800
FFE000
ENDCHAR

STARTCHAR C
ENCODING 67
SWIDTH 719 0
DWIDTH 18 0
BBX 17 17 2 0
BITMAP
00FC80
038300
060100
1C0100
380100
300000
700000
600000
E00000
E00000
E00000
E00000
600000
700400
300800
1C3000
0FC000
ENDCHAR

STARTCHAR D
ENCODING 68
SWIDTH 771 0
DWIDTH 19 0
BBX 18 17 1 0
BITMAP
0FFC00
038600
038300
030180
0301C0
0701C0
0601C0
0601C0
0E01C0
0E01C0
0C0180
1C0380
1C0300
180600
180C00
383800
FFC000
ENDCHAR

STARTCHAR E
ENCODING 69
SWIDTH 667 0
DWIDTH 17 0
BBX 17 17 0 0
BITMAP
07FF80
038180
038080
038080
030000
030800
070800
061800
07F000
0E1000
0E1000
0C0000
1C0200
1C0200
180600
381C00
FFFC00
ENDCHAR

STARTCHAR F
ENCODING 70
SWIDTH 604 0
DWIDTH 15 0
BBX 17 17 0 0
BITMAP
07FF80
038180
038080
038080
030000
070800
060800
07F800
061000
0E1000
0E1000
0C0000
1C0000
1C0000
180000
3C0000
FF0000
ENDCHAR

STARTCHAR G
ENCODING 71
SWIDTH 719 0
DWIDTH 18 0
BBX 16 17 2 0
BITMAP
00F9
0707
0C03
1801
3801
7000
7000
6000
E07F
E01C
E01C
E01C
6018
6038
3038
1830
07C0
ENDCHAR

STARTCHAR H
ENCODING 72
SWIDTH 823 0
DWIDTH 21 0
BBX 22 17 0 0
BITMAP
07F1FC
01C070
018060
0380E0
0380E0
0300C0
0300C0
0701C0
07FF80
060180
0E0380
0E0380
0C0300
1C0700
1C0700
1C0700
FF3FC0
ENDCHAR

STARTCHAR I
ENCODING 73
SWIDTH 385 0
DWIDTH 10 0
BBX 12 17 0 0
BITMAP
0FF0
0380
0380
0300
0300
0700
0700
0600
0E00
0E00
0C00
0C00
1C00
1800
1800
3800
FE00
ENDCHAR

STARTCHAR J
ENCODING 74
SWIDTH 500 0
DWIDTH 13 0
BBX 14 17 0 0
BITMAP
03FC
0070
0060
00E0
00E0
00C0
01C0
01C0
0180
0180
0380
0380
0300
E700
E600
CC00
7800
ENDCHAR

STARTCHAR K
ENCODING 75
SWIDTH 719 0
DWIDTH 18 0
BBX 20 17 0 0
BITMAP
07F0F0
01C1C0
018100
038600
038C00
031000
076000
07C000
06E000
06E000
0E7000
0C3000
0C3800
1C1C00
1C0C00
3C0E00
FE3FC0
ENDCHAR

STARTCHAR L
ENCODING 76
SWIDTH 667 0
DWIDTH 17 0
BBX 16 17 0 0
BITMAP
07F8
01C0
0180
0380
0380
0300
0300
0700
0600
0600
0E00
0E00
0C01
1C01
1C02
1C06
FFFE
ENDCHAR

STARTCHAR M
ENCODING 77
SWIDTH 990 0
DWIDTH 25 0
BBX 25 17 1 0
BITMAP
0F800F80
03801C00
03801C00
02802C00
02C05800
05C0B800
05C0B800
04C13000
08C23000
08C47000
08C46000
10C86000
10F0E000
10E0E000
20E0C000
30C1C000
F84FF000
ENDCHAR

STARTCHAR N
ENCODING 78
SWIDTH 771 0
DWIDTH 19 0
BBX 21 17 0 0
BITMAP
0F81F8
018040
01C040
02C040
02E080
02E080
046080
047080
043100
043900
081900
081E00
081E00
100E00
100C00
100400
FC0400
ENDCHAR

STARTCHAR O
ENCODING 79
SWIDTH 771 0
DWIDTH 19 0
BBX 17 17 2 0
BITMAP
00F800
030600
060300
0C0300
180380
380380
700380
700380
700300
E00700
E00700
E00E00
E00C00
601800
703000
306000
0F8000
ENDCHAR

STARTCHAR P
ENCODING 80
SWIDTH 667 0
DWIDTH 17 0
BBX 16 17 1 0
BITMAP
0FF8
038E
0387
0307
0707
0706
060E
061C
0FF0
0C00
0C00
1C00
1C00
1800
3800
3800
FE00
ENDCHAR

STARTCHAR Q
ENCODING 81
SWIDTH 771 0
DWIDTH 19 0
BBX 17 22 2 -5
BITMAP
00F800
038600
060300
0C0300
180380
380380
700380
700380
700300
E00700
E00700
E00E00
E00C00
601C00
603000
306000
0F8000
040000
180100
3F0200
7FFC00
01F000
ENDCHAR

STARTCHAR R
ENCODING 82
SWIDTH 719 0
DWIDTH 18 0
BBX 17 17 0 0
BITMAP
07FC00
01C700
01C380
018380
038380
038300
030700
030E00
07F000
063000
063800
0E1800
0E1C00
0C0C00
1C0E00
1C0700
FF0780
ENDCHAR

STARTCHAR S
ENCODING 83
SWIDTH 604 0
DWIDTH 15 0
BBX 14 17 1 0
BITMAP
03E4
0C1C
180C
1800
1C08
1C00
0E00
0780
03C0
01E0
00E0
8070
8070
8070
C060
E0C0
9F80
ENDCHAR

STARTCHAR T
ENCODING 84
SWIDTH 667 0
DWIDTH 17 0
BBX 16 17 3 0
BITMAP
7FFF
4182
8382
8382
0300
0300
0700
0700
0600
0E00
0E00
0C00
0C00
1C00
1C00
3C00
FF00
ENDCHAR

STARTCHAR U
ENCODING 85
SWIDTH 771 0
DWIDTH 19 0
BBX 17 17 4 0
BITMAP
FF0F80
3C0200
380200
380200
300400
300400
700400
600800
600800
E00800
E00800
C01000
C01000
C02000
E06000
70C000
1F0000
ENDCHAR

STARTCHAR V
ENCODING 86
SWIDTH 719 0
DWIDTH 18 0
BBX 17 17 4 0
BITMAP
FE1F80
380400
380800
381800
301000
302000
304000
308000
310000
310000
320000
740000
780000
700000
600000
600000
400000
ENDCHAR

STARTCHAR W
ENCODING 87
SWIDTH 990 0
DWIDTH 25 0
BBX 24 17 4 0
BITMAP
FEFE3F
38380C
303818
303810
303820
305840
30B840
313080
713100
723200
743200
783400
783800
703000
603000
402000
404000
ENDCHAR

STARTCHAR X
ENCODING 88
SWIDTH 719 0
DWIDTH 18 0
BBX 20 17 0 0
BITMAP
0FE1F0
0380C0
018100
01C200
01C400
00C800
00D000
00E000
006000
00E000
01A000
037000
063000
0C3000
183800
303800
FCFE00
ENDCHAR

STARTCHAR Y
ENCODING 89
SWIDTH 719 0
DWIDTH 18 0
BBX 16 17 4 0
BITMAP
FF3F
380C
1C08
1C10
0C20
0C40
0EC0
0680
0700
0600
0E00
0E00
0C00
0C00
1C00
1C00
FF00
ENDCHAR

STARTCHAR Z
ENCODING 90
SWIDTH 719 0
DWIDTH 18 0
BBX 18 17 1 0
BITMAP
1FFFC0
100780
100F00
201E00
001C00
003800
007000
00E000
01C000
038000
070000
0E0000
1C0000
380200
780200
E00C00
FFFC00
ENDCHAR

STARTCHAR bracketleft
ENCODING 91
SWIDTH 500 0
DWIDTH 13 0
BBX 12 23 1 -5
BITMAP
01F0
0300
0300
0300
0300
0600
0600
0600
0C00
0C00
0C00
0C00
1800
1800
1800
3000
3000
3000
3000
6000
6000
6000
F800
ENDCHAR

STARTCHAR backslash
ENCODING 92
SWIDTH 281 0
DWIDTH 7 0
BBX 1 19 4 -1
BITMAP
80
80
80
80
80
80
80
80
80
80
80
80
80
80
80
80
80
80
80
ENDCHAR

STARTCHAR bracketright
ENCODING 93
SWIDTH 500 0
DWIDTH 13 0
BBX 11 23 1 -5
BITMAP
03E0
00C0
00C0
00C0
0080
0180
0180
0180
0300
0300
0300
0200
0600
0600
0400
0C00
0C00
0C00
0800
1800
1800
1000
F000
ENDCHAR

STARTCHAR asciicircum
ENCODING 94
SWIDTH 583 0
DWIDTH 15 0
BBX 11 9 4 8
BITMAP
0400
0E00
0E00
1B00
1380
3180
60C0
60C0
C060
ENDCHAR

STARTCHAR underscore
ENCODING 95
SWIDTH 500 0
DWIDTH 13 0
BBX 13 1 0 -3
BITMAP
FFF8
ENDCHAR

STARTCHAR quoteleft
ENCODING 96
SWIDTH 271 0
DWIDTH 7 0
BBX 3 5 5 12
BITMAP
20
40
C0
C0
C0
ENDCHAR

STARTCHAR a
ENCODING 97
SWIDTH 500 0
DWIDTH 13 0
BBX 12 11 0 0
BITMAP
03B0
0C60
1860
3060
6040
60C0
C0C0
C0C0
C390
E5A0
79C0
ENDCHAR

STARTCHAR b
ENCODING 98
SWIDTH 500 0
DWIDTH 13 0
BBX 11 18 1 0
BITMAP
0600
1C00
0C00
0C00
1800
1800
1800
1BC0
3CE0
3060
3060
6060
6040
60C0
C080
C100
C600
3800
ENDCHAR

STARTCHAR c
ENCODING 99
SWIDTH 438 0
DWIDTH 11 0
BBX 9 11 1 0
BITMAP
0700
1880
3180
6080
6000
C000
C000
C000
C100
6600
7800
ENDCHAR

STARTCHAR d
ENCODING 100
SWIDTH 500 0
DWIDTH 13 0
BBX 14 18 0 0
BITMAP
000C
0078
0018
0018
0010
0030
0030
03B0
0C60
1860
3060
6040
60C0
C1C0
C2C0
C390
EDA0
71C0
ENDCHAR

STARTCHAR e
ENCODING 101
SWIDTH 438 0
DWIDTH 11 0
BBX 10 11 1 0
BITMAP
0780
08C0
30C0
2180
6300
FC00
C000
C000
C180
E300
7C00
ENDCHAR

STARTCHAR f
ENCODING 102
SWIDTH 333 0
DWIDTH 8 0
BBX 16 23 -4 -5
BITMAP
000E
0013
0033
0020
0060
00C0
00C0
03F0
00C0
0180
0180
0180
0180
0300
0300
0300
0200
0600
0600
0400
0800
D000
6000
ENDCHAR

STARTCHAR g
ENCODING 103
SWIDTH 500 0
DWIDTH 13 0
BBX 13 16 -1 -5
BITMAP
0780
0C78
1860
3060
30E0
30C0
1F80
0800
1000
3C00
1F80
61C0
C040
C040
6180
3E00
ENDCHAR

STARTCHAR h
ENCODING 104
SWIDTH 500 0
DWIDTH 13 0
BBX 11 18 0 0
BITMAP
0600
1E00
0400
0C00
0C00
0C00
1800
18E0
1960
1660
3460
38C0
30C0
70C0
6080
61A0
C1E0
C180
ENDCHAR

STARTCHAR i
ENCODING 105
SWIDTH 271 0
DWIDTH 7 0
BBX 6 16 1 0
BITMAP
08
1C
08
00
00
F8
30
30
30
20
60
60
40
C8
D0
E0
ENDCHAR

STARTCHAR j
ENCODING 106
SWIDTH 271 0
DWIDTH 7 0
BBX 11 21 -4 -5
BITMAP
0040
00E0
0040
0000
0000
00C0
0380
0180
0180
0180
0300
0300
0300
0200
0600
0600
0400
0C00
0800
D800
6000
ENDCHAR

STARTCHAR k
ENCODING 107
SWIDTH 531 0
DWIDTH 13 0
BBX 13 18 0 0
BITMAP
1E00
0600
0600
0C00
0C00
0C00
0800
18F8
1860
1880
3100
3600
3E00
6300
6300
6190
41B0
C0C0
ENDCHAR

STARTCHAR l
ENCODING 108
SWIDTH 271 0
DWIDTH 7 0
BBX 7 18 1 0
BITMAP
1E
0C
0C
0C
08
18
18
18
30
30
30
60
60
60
40
C8
D0
E0
ENDCHAR

STARTCHAR m
ENCODING 109
SWIDTH 771 0
DWIDTH 19 0
BBX 18 11 0 0
BITMAP
19E1C0
7A66C0
3468C0
3870C0
28D180
70E180
60C180
61C300
C18340
C183C0
C18300
ENDCHAR

STARTCHAR n
ENCODING 110
SWIDTH 500 0
DWIDTH 13 0
BBX 11 11 0 0
BITMAP
78E0
1960
1A60
3460
38C0
30C0
60C0
6080
61A0
C1E0
C180
ENDCHAR

STARTCHAR o
ENCODING 111
SWIDTH 500 0
DWIDTH 13 0
BBX 11 11 1 0
BITMAP
0780
0840
3060
6060
6060
E0E0
C0C0
C1C0
C180
6300
3C00
ENDCHAR

STARTCHAR p
ENCODING 112
SWIDTH 500 0
DWIDTH 13 0
BBX 14 16 -3 -5
BITMAP
0338
0FCC
030C
070C
060C
0618
0418
0C10
0820
0CC0
1B00
1800
1800
3000
3000
FC00
ENDCHAR

STARTCHAR q
ENCODING 113
SWIDTH 500 0
DWIDTH 13 0
BBX 11 16 1 -5
BITMAP
0760
08E0
1060
30C0
60C0
40C0
C180
C380
C580
FB00
6300
0300
0200
0600
0600
1F80
ENDCHAR

STARTCHAR r
ENCODING 114
SWIDTH 385 0
DWIDTH 10 0
BBX 8 11 1 0
BITMAP
33
F7
37
28
70
60
60
60
C0
C0
C0
ENDCHAR

STARTCHAR s
ENCODING 115
SWIDTH 385 0
DWIDTH 10 0
BBX 10 11 0 0
BITMAP
0740
0880
1880
1880
0C00
0600
0700
4300
4300
6200
9C00
ENDCHAR

STARTCHAR t
ENCODING 116
SWIDTH 333 0
DWIDTH 8 0
BBX 6 14 2 0
BITMAP
04
08
18
7C
30
30
30
60
60
60
40
C8
D0
E0
ENDCHAR

STARTCHAR u
ENCODING 117
SWIDTH 500 0
DWIDTH 13 0
BBX 11 11 1 0
BITMAP
7060
B0C0
B0C0
20C0
6180
6180
6380
C500
CB40
D340
E380
ENDCHAR

STARTCHAR v
ENCODING 118
SWIDTH 438 0
DWIDTH 11 0
BBX 9 11 1 0
BITMAP
F180
3180
3080
3080
3100
3100
1200
1400
1800
1000
1000
ENDCHAR

STARTCHAR w
ENCODING 119
SWIDTH 667 0
DWIDTH 17 0
BBX 15 11 1 0
BITMAP
E086
6086
2182
3282
32C4
34C8
34C8
38D0
30E0
20C0
2080
ENDCHAR

STARTCHAR x
ENCODING 120
SWIDTH 552 0
DWIDTH 14 0
BBX 13 11 0 0
BITMAP
3C18
0E38
0640
0380
0300
0300
0300
0580
0990
D0D0
E0E0
ENDCHAR

STARTCHAR y
ENCODING 121
SWIDTH 500 0
DWIDTH 13 0
BBX 13 16 -1 -5
BITMAP
0610
1E18
0608
0608
0610
0610
0620
0640
0280
0280
0300
0200
0400
0800
5000
E000
ENDCHAR

STARTCHAR z
ENCODING 122
SWIDTH 438 0
DWIDTH 11 0
BBX 11 11 0 0
BITMAP
1FE0
1F80
2080
0100
0200
0400
0800
1000
2080
7F00
FF00
ENDCHAR

STARTCHAR braceleft
ENCODING 123
SWIDTH 479 0
DWIDTH 12 0
BBX 7 23 4 -5
BITMAP
06
08
10
30
30
30
30
30
10
10
20
C0
20
10
10
18
38
38
30
30
10
08
06
ENDCHAR

STARTCHAR bar
ENCODING 124
SWIDTH 271 0
DWIDTH 7 0
BBX 2 23 3 -5
BITMAP
C0
C0
C0
C0
C0
C0
C0
C0
C0
C0
C0
C0
C0
C0
C0
C0
C0
C0
C0
C0
C0
C0
C0
ENDCHAR

STARTCHAR braceright
ENCODING 125
SWIDTH 479 0
DWIDTH 12 0
BBX 7 23 3 -5
BITMAP
C0
20
10
18
18
38
38
30
10
10
08
06
08
10
10
18
18
18
18
18
10
20
C0
ENDCHAR

STARTCHAR asciitilde
ENCODING 126
SWIDTH 667 0
DWIDTH 17 0
BBX 13 3 3 7
BITMAP
7C08
8F10
81F0
ENDCHAR

STARTCHAR space
ENCODING 160
SWIDTH 250 0
DWIDTH 7 0
BBX 0 0 0 0
BITMAP
ENDCHAR

STARTCHAR afii10023
ENCODING 161
SWIDTH 667 0
DWIDTH 17 0
BBX 17 22 0 0
BITMAP
00E380
00E380
00E380
000000
000000
07FF80
018180
018080
038080
038000
030800
070800
071800
07F000
061000
0E1000
0E0000
0C0200
1C0200
1C0600
1C1C00
FFFC00
ENDCHAR

STARTCHAR afii10051
ENCODING 162
SWIDTH 809 0
DWIDTH 20 0
BBX 17 17 2 0
BITMAP
7FFE00
438600
838200
830200
830200
070000
067E00
06C700
0F0380
0E0380
0C0380
0C0380
1C0700
180700
180E00
381800
FEE000
ENDCHAR

STARTCHAR afii10052
ENCODING 163
SWIDTH 631 0
DWIDTH 16 0
BBX 18 22 0 0
BITMAP
000F80
001C00
003000
000000
000000
0FFFC0
0380C0
038080
038080
030000
030000
070000
060000
060000
0E0000
0E0000
0C0000
1C0000
1C0000
180000
3C0000
FF0000
ENDCHAR

STARTCHAR afii10053
ENCODING 164
SWIDTH 719 0
DWIDTH 18 0
BBX 17 17 2 0
BITMAP
00FC80
038300
060100
1C0100
380100
380000
700000
600000
FF8000
E00000
E00000
E00000
E00000
700400
300800
1C3000
07C000
ENDCHAR

STARTCHAR afii10054
ENCODING 165
SWIDTH 604 0
DWIDTH 15 0
BBX 14 17 1 0
BITMAP
03E4
0C1C
180C
1800
1C08
1C00
0E00
0780
03C0
01E0
00E0
8070
8070
8070
C060
E0C0
9F80
ENDCHAR

STARTCHAR afii10055
ENCODING 166
SWIDTH 385 0
DWIDTH 10 0
BBX 12 17 0 0
BITMAP
0FF0
0380
0380
0300
0300
0700
0700
0600
0E00
0E00
0C00
0C00
1C00
1800
1800
3800
FE00
ENDCHAR

STARTCHAR afii10056
ENCODING 167
SWIDTH 385 0
DWIDTH 10 0
BBX 13 22 0 0
BITMAP
0E38
0E38
0E38
0000
0000
0FE0
0380
0300
0300
0700
0600
0600
0E00
0E00
0C00
0C00
1C00
1800
1800
3800
3800
FE00
ENDCHAR

STARTCHAR afii10057
ENCODING 168
SWIDTH 500 0
DWIDTH 13 0
BBX 14 17 0 0
BITMAP
03FC
0070
0060
00E0
00E0
00C0
01C0
01C0
0180
0180
0380
0380
0300
E700
E600
CC00
7800
ENDCHAR

STARTCHAR afii10058
ENCODING 169
SWIDTH 957 0
DWIDTH 24 0
BBX 23 17 -1 0
BITMAP
03FFF0
0081C0
008180
008380
008380
008300
010700
010700
0107F0
02061C
020E0E
020E0E
040C0E
041C0E
C81C1C
D81838
F0FFE0
ENDCHAR

STARTCHAR afii10059
ENCODING 170
SWIDTH 984 0
DWIDTH 25 0
BBX 23 17 0 0
BITMAP
07F7F0
03C1C0
038180
038380
030380
030300
070700
060700
07FFF0
0E061C
0E0E0E
0C0E0E
1C0C0E
1C1C0E
181C1C
381838
FEFFE0
ENDCHAR

STARTCHAR afii10060
ENCODING 171
SWIDTH 811 0
DWIDTH 20 0
BBX 17 17 2 0
BITMAP
3FFF00
61C300
418200
418200
438200
030000
033F00
074780
078380
070380
0E0300
0E0300
0C0700
0C0700
1C0600
1C0E00
FF3F80
ENDCHAR

STARTCHAR afii10061
ENCODING 172
SWIDTH 713 0
DWIDTH 18 0
BBX 19 22 0 0
BITMAP
0007C0
000F00
000C00
001000
000000
07F0E0
03C1E0
038260
038200
030400
030400
070800
061000
07E000
0E7000
0E3000
0C3800
0C1800
1C1C00
180C00
380E00
FE0780
ENDCHAR

STARTCHAR hyphen
ENCODING 173
SWIDTH 333 0
DWIDTH 8 0
BBX 6 2 1 5
BITMAP
FC
FC
ENDCHAR

STARTCHAR afii10062
ENCODING 174
SWIDTH 688 0
DWIDTH 17 0
BBX 18 21 3 0
BITMAP
030C00
031800
01F000
000000
FE0FC0
380200
380600
180400
1C0800
1C0800
0C1000
0C2000
0E2000
0E4000
068000
078000
070000
020000
E20000
E40000
780000
ENDCHAR

STARTCHAR afii10145
ENCODING 175
SWIDTH 804 0
DWIDTH 20 0
BBX 22 22 0 -5
BITMAP
07F3FC
01C0E0
0380E0
0380E0
0300C0
0301C0
0701C0
060180
060180
0E0380
0E0380
0C0300
1C0700
1C0700
180600
3C0E00
FFFF80
01C000
018000
010000
010000
010000
ENDCHAR

STARTCHAR afii10017
ENCODING 176
SWIDTH 719 0
DWIDTH 18 0
BBX 16 17 0 0
BITMAP
0002
0006
000C
000C
001C
002C
004C
00CC
008C
011C
021C
07FC
0C1C
081C
1018
201C
F87F
ENDCHAR

STARTCHAR afii10018
ENCODING 177
SWIDTH 655 0
DWIDTH 16 0
BBX 18 17 0 0
BITMAP
07FFC0
018180
018080
038080
038000
030000
070000
070000
07F000
061C00
0E0E00
0E0E00
0C0E00
1C0E00
1C1C00
183800
FFE000
ENDCHAR

STARTCHAR afii10019
ENCODING 178
SWIDTH 667 0
DWIDTH 17 0
BBX 17 17 0 0
BITMAP
07FE00
01C700
018380
018380
038380
038700
030E00
07F000
061C00
060E00
060E00
0C0E00
0C0E00
0C0C00
1C1C00
187800
FFE000
ENDCHAR

STARTCHAR afii10020
ENCODING 179
SWIDTH 631 0
DWIDTH 16 0
BBX 18 17 0 0
BITMAP
0FFFC0
0380C0
038080
038080
030000
030000
070000
060000
060000
0E0000
0E0000
0C0000
1C0000
1C0000
180000
3C0000
FF0000
ENDCHAR

STARTCHAR afii10021
ENCODING 180
SWIDTH 675 0
DWIDTH 17 0
BBX 20 22 -2 -5
BITMAP
01FFF0
0041C0
0041C0
008180
008180
008380
008380
010300
010700
010700
020600
020600
040E00
040C00
080C00
101C00
7FFF00
600300
C00300
800100
800200
800200
ENDCHAR

STARTCHAR afii10022
ENCODING 181
SWIDTH 667 0
DWIDTH 17 0
BBX 17 17 0 0
BITMAP
07FF80
038180
038080
038080
030000
030800
070800
061800
07F000
0E1000
0E1000
0C0000
1C0200
1C0200
180600
381C00
FFFC00
ENDCHAR

STARTCHAR afii10024
ENCODING 182
SWIDTH 947 0
DWIDTH 24 0
BBX 26 17 -1 0
BITMAP
070FE180
0F8383C0
06830580
00830800
00870800
00870800
00861000
00CE2000
007FC000
01CCC000
038CE000
071C6000
0E187000
1C183000
38383800
70381C00
F0FE1E00
ENDCHAR

STARTCHAR afii10025
ENCODING 183
SWIDTH 527 0
DWIDTH 13 0
BBX 14 17 -1 0
BITMAP
05F0
0618
041C
081C
001C
0038
0070
00C0
07E0
0070
0070
0070
0070
00E0
00E0
E1C0
1F00
ENDCHAR

STARTCHAR afii10026
ENCODING 184
SWIDTH 805 0
DWIDTH 20 0
BBX 22 17 0 0
BITMAP
07F3FC
01C060
0380E0
0381E0
0302C0
0304C0
070DC0
071980
063180
0E6380
0EC380
0D8300
1F0700
1E0700
1C0600
380E00
FE3F80
ENDCHAR

STARTCHAR afii10027
ENCODING 185
SWIDTH 805 0
DWIDTH 20 0
BBX 22 21 0 0
BITMAP
0030C0
0039C0
000F00
000000
07F3FC
01C060
0380E0
0381E0
0302C0
0304C0
070DC0
071980
063180
0E6380
0EC380
0D8300
1F0700
1E0700
1C0600
380E00
FE3F80
ENDCHAR

STARTCHAR afii10028
ENCODING 186
SWIDTH 713 0
DWIDTH 18 0
BBX 19 17 0 0
BITMAP
07F0E0
03C1E0
038260
038200
030400
030400
070800
061000
07E000
0E7000
0E3000
0C3800
0C1800
1C1C00
180C00
380E00
FE0780
ENDCHAR

STARTCHAR afii10029
ENCODING 187
SWIDTH 715 0
DWIDTH 18 0
BBX 21 17 -1 0
BITMAP
01FFF8
0041C0
0041C0
008180
008180
008380
008300
010300
010700
010700
020600
020E00
020E00
040C00
E40C00
E81C00
707F00
ENDCHAR

STARTCHAR afii10030
ENCODING 188
SWIDTH 990 0
DWIDTH 25 0
BBX 25 17 1 0
BITMAP
0F800F80
03801C00
03801C00
02802C00
02C05800
05C0B800
05C0B800
04C13000
08C23000
08C47000
08C46000
10C86000
10F0E000
10E0E000
20E0C000
30C1C000
F84FF000
ENDCHAR

STARTCHAR afii10031
ENCODING 189
SWIDTH 823 0
DWIDTH 21 0
BBX 22 17 0 0
BITMAP
07F1FC
01C070
018060
0380E0
0380E0
0300C0
0300C0
0701C0
07FF80
060180
0E0380
0E0380
0C0300
1C0700
1C0700
1C0700
FF3FC0
ENDCHAR

STARTCHAR afii10032
ENCODING 190
SWIDTH 771 0
DWIDTH 19 0
BBX 17 17 2 0
BITMAP
00F800
030600
060300
0C0300
180380
380380
700380
700380
700300
E00700
E00700
E00E00
E00C00
601800
703000
306000
0F8000
ENDCHAR

STARTCHAR afii10033
ENCODING 191
SWIDTH 805 0
DWIDTH 20 0
BBX 22 17 0 0
BITMAP
0FFFFC
018060
0380E0
0380E0
0300C0
0301C0
0701C0
060180
060180
0E0380
0E0380
0C0300
1C0700
1C0700
180600
3C0E00
FE3F80
ENDCHAR

STARTCHAR afii10034
ENCODING 192
SWIDTH 667 0
DWIDTH 17 0
BBX 16 17 1 0
BITMAP
0FF8
038E
0387
0307
0707
0706
060E
061C
0FF0
0C00
0C00
1C00
1C00
1800
3800
3800
FE00
ENDCHAR

STARTCHAR afii10035
ENCODING 193
SWIDTH 719 0
DWIDTH 18 0
BBX 17 17 2 0
BITMAP
00FC80
038300
060100
1C0100
380100
300000
700000
600000
E00000
E00000
E00000
E00000
600000
700400
300800
1C3000
0FC000
ENDCHAR

STARTCHAR afii10036
ENCODING 194
SWIDTH 667 0
DWIDTH 17 0
BBX 16 17 3 0
BITMAP
7FFF
4182
8382
8382
0300
0300
0700
0700
0600
0E00
0E00
0C00
0C00
1C00
1C00
3C00
FF00
ENDCHAR

STARTCHAR afii10037
ENCODING 195
SWIDTH 688 0
DWIDTH 17 0
BBX 18 17 3 0
BITMAP
FE0FC0
380200
380600
180400
1C0800
1C0800
0C1000
0C2000
0E2000
0E4000
068000
078000
070000
020000
E20000
E40000
780000
ENDCHAR

STARTCHAR afii10038
ENCODING 196
SWIDTH 796 0
DWIDTH 20 0
BBX 17 17 2 0
BITMAP
01FC00
007000
007000
07AE00
186300
70E180
60C180
E0C180
C1C180
C1C380
C18300
C38700
630C00
3FF000
030000
070000
1FC000
ENDCHAR

STARTCHAR afii10039
ENCODING 197
SWIDTH 719 0
DWIDTH 18 0
BBX 20 17 0 0
BITMAP
0FE1F0
0380C0
018100
01C200
01C400
00C800
00D000
00E000
006000
00E000
01A000
037000
063000
0C3000
183800
303800
FCFE00
ENDCHAR

STARTCHAR afii10040
ENCODING 198
SWIDTH 804 0
DWIDTH 20 0
BBX 22 22 0 -5
BITMAP
07F3FC
01C070
0380E0
0380E0
0300C0
0301C0
0701C0
070180
060180
0E0380
0E0380
0C0300
1C0700
1C0700
180600
3C0E00
FFFF80
000180
000180
000080
000100
000100
ENDCHAR

STARTCHAR afii10041
ENCODING 199
SWIDTH 727 0
DWIDTH 18 0
BBX 17 17 2 0
BITMAP
FE3F80
380E00
380E00
300C00
701C00
701C00
601800
603800
707800
3FB000
003000
007000
007000
006000
00E000
00E000
03F800
ENDCHAR

STARTCHAR afii10042
ENCODING 200
SWIDTH 1126 0
DWIDTH 28 0
BBX 30 17 0 0
BITMAP
07F3F9FC
01C1C0E0
0381C0E0
0381C0E0
030180C0
030180C0
070381C0
07030180
06030180
0E070380
0E070380
0C060300
0C0E0700
1C0E0700
180C0600
3C1E0E00
FFFFFF80
ENDCHAR

STARTCHAR afii10043
ENCODING 201
SWIDTH 1126 0
DWIDTH 28 0
BBX 30 22 0 -5
BITMAP
07F3F9FC
01C1C0E0
0381C0E0
0381C0E0
030180C0
030180C0
070381C0
07030180
06030180
0E070380
0E070380
0C060300
0C0E0700
1C0E0700
180E0600
3C1E0E00
FFFFFF80
00000180
00000180
00000080
00000100
00000100
ENDCHAR

STARTCHAR afii10044
ENCODING 202
SWIDTH 730 0
DWIDTH 18 0
BBX 15 17 2 0
BITMAP
7FF0
6180
4180
4380
0300
0300
0700
07F0
061C
0E0C
0E0E
0C0E
0C0E
1C0C
1C1C
1878
FFE0
ENDCHAR

STARTCHAR afii10045
ENCODING 203
SWIDTH 964 0
DWIDTH 24 0
BBX 26 17 0 0
BITMAP
07F01FC0
01C00700
01800600
03800600
03800E00
03000C00
07000C00
07001C00
07F01C00
061C1800
0E0E3800
0E0E3800
0C0E3000
1C0E3000
1C1C7000
18387000
FFE3FC00
ENDCHAR

STARTCHAR afii10046
ENCODING 204
SWIDTH 655 0
DWIDTH 16 0
BBX 15 17 0 0
BITMAP
07F0
01C0
0180
0380
0380
0300
0700
0700
07F0
061C
0E0E
0E0E
0C0E
1C0E
1C1C
1838
FFE0
ENDCHAR

STARTCHAR afii10047
ENCODING 205
SWIDTH 704 0
DWIDTH 18 0
BBX 16 17 1 0
BITMAP
0BF0
0C1C
180E
1006
1007
0007
0007
0007
01FF
0007
0006
000E
000C
C018
4038
3060
0F80
ENDCHAR

STARTCHAR afii10048
ENCODING 206
SWIDTH 1106 0
DWIDTH 28 0
BBX 28 17 -1 0
BITMAP
07F01F00
01C070C0
0180C060
01818060
03830070
03870070
030E0070
070E0070
07FE0060
061C00E0
061C00E0
0E1C01C0
0C1C0180
0C0C0300
1C0E0600
1C061C00
FF01F000
ENDCHAR

STARTCHAR afii10049
ENCODING 207
SWIDTH 710 0
DWIDTH 18 0
BBX 21 17 -1 0
BITMAP
003FF8
00E0C0
01C1C0
0381C0
038180
038380
018380
01C300
007F00
00E700
01C600
038600
070E00
0E0E00
1C0C00
381C00
F07F00
ENDCHAR

STARTCHAR afii10065
ENCODING 208
SWIDTH 500 0
DWIDTH 13 0
BBX 12 11 0 0
BITMAP
03B0
0C60
1860
3060
6040
60C0
C0C0
C0C0
C390
E5A0
79C0
ENDCHAR

STARTCHAR afii10066
ENCODING 209
SWIDTH 507 0
DWIDTH 13 0
BBX 12 18 1 0
BITMAP
0010
01F0
03E0
0C00
0800
1000
2000
2780
3840
7060
6060
E060
C0E0
C0C0
C0C0
C180
6300
3C00
ENDCHAR

STARTCHAR afii10067
ENCODING 210
SWIDTH 438 0
DWIDTH 11 0
BBX 10 11 1 0
BITMAP
0780
18C0
30C0
7180
6600
FE00
C180
C180
C180
4300
3C00
ENDCHAR

STARTCHAR afii10068
ENCODING 211
SWIDTH 406 0
DWIDTH 10 0
BBX 9 11 1 0
BITMAP
1F00
2180
0180
0100
0600
1800
6000
C000
C000
C700
7800
ENDCHAR

STARTCHAR afii10069
ENCODING 212
SWIDTH 501 0
DWIDTH 13 0
BBX 11 17 1 0
BITMAP
0600
0100
0080
00C0
0040
0060
0760
18E0
3060
6060
6060
E0E0
C0C0
C180
C180
4600
3800
ENDCHAR

STARTCHAR afii10070
ENCODING 213
SWIDTH 438 0
DWIDTH 11 0
BBX 10 11 1 0
BITMAP
0780
08C0
30C0
2180
6300
FC00
C000
C000
C180
E300
7C00
ENDCHAR

STARTCHAR afii10072
ENCODING 214
SWIDTH 997 0
DWIDTH 25 0
BBX 24 11 0 0
BITMAP
1F060E
238C31
418C63
018CC0
0198C0
01FF80
031980
433180
C63182
8C31CC
7020F0
ENDCHAR

STARTCHAR afii10073
ENCODING 215
SWIDTH 404 0
DWIDTH 10 0
BBX 9 11 0 0
BITMAP
3F00
2180
4180
0180
0200
1C00
0300
0300
0300
8E00
7C00
ENDCHAR

STARTCHAR afii10074
ENCODING 216
SWIDTH 500 0
DWIDTH 13 0
BBX 11 11 1 0
BITMAP
7060
B0C0
B0C0
20C0
6180
6180
6380
C500
CB40
D340
E380
ENDCHAR

STARTCHAR afii10075
ENCODING 217
SWIDTH 500 0
DWIDTH 13 0
BBX 11 16 1 0
BITMAP
0C40
0C80
0700
0000
0000
7060
B0C0
B0C0
20C0
6180
6180
6380
C500
CB40
D340
E380
ENDCHAR

STARTCHAR afii10076
ENCODING 218
SWIDTH 498 0
DWIDTH 12 0
BBX 12 11 0 0
BITMAP
0C70
38B0
1880
1900
3A00
3600
3300
6300
6180
6180
C0E0
ENDCHAR

STARTCHAR afii10077
ENCODING 219
SWIDTH 454 0
DWIDTH 11 0
BBX 12 11 -1 0
BITMAP
0FF0
0260
0460
0460
0440
08C0
08C0
08C0
1190
D1A0
E1C0
ENDCHAR

STARTCHAR afii10078
ENCODING 220
SWIDTH 655 0
DWIDTH 16 0
BBX 17 11 -1 0
BITMAP
0F0380
030100
030700
050B00
058A00
099600
09A600
09A600
11CC80
D18D00
E10E00
ENDCHAR

STARTCHAR afii10079
ENCODING 221
SWIDTH 505 0
DWIDTH 13 0
BBX 12 11 0 0
BITMAP
7830
1860
1860
3060
3040
3FC0
30C0
60C0
6190
61A0
C1C0
ENDCHAR

STARTCHAR afii10080
ENCODING 222
SWIDTH 500 0
DWIDTH 13 0
BBX 11 11 1 0
BITMAP
0780
0840
3060
6060
6060
E0E0
C0C0
C1C0
C180
6300
3C00
ENDCHAR

STARTCHAR afii10081
ENCODING 223
SWIDTH 500 0
DWIDTH 13 0
BBX 11 11 0 0
BITMAP
78E0
1960
1A60
3460
38C0
30C0
60C0
6080
61A0
C1E0
C180
ENDCHAR

STARTCHAR afii10082
ENCODING 224
SWIDTH 500 0
DWIDTH 13 0
BBX 14 16 -3 -5
BITMAP
0338
0FCC
030C
070C
060C
0618
0418
0C10
0820
0CC0
1B00
1800
1800
3000
3000
FC00
ENDCHAR

STARTCHAR afii10083
ENCODING 225
SWIDTH 438 0
DWIDTH 11 0
BBX 9 11 1 0
BITMAP
0700
1880
3180
6080
6000
C000
C000
C000
C100
6600
7800
ENDCHAR

STARTCHAR afii10084
ENCODING 226
SWIDTH 771 0
DWIDTH 19 0
BBX 18 11 0 0
BITMAP
19E1C0
7A66C0
3468C0
3870C0
28D180
70E180
60C180
61C300
C18340
C183C0
C18300
ENDCHAR

STARTCHAR afii10085
ENCODING 227
SWIDTH 500 0
DWIDTH 13 0
BBX 13 16 -1 -5
BITMAP
0610
1E18
0608
0608
0610
0610
0620
0640
0280
0280
0300
0200
0400
0800
5000
E000
ENDCHAR

STARTCHAR afii10086
ENCODING 228
SWIDTH 704 0
DWIDTH 18 0
BBX 16 23 1 -5
BITMAP
0018
00F0
0030
0030
0060
0060
0060
075C
18E2
30C3
60C3
6183
E187
C186
C306
C30C
4318
3EE0
0600
0600
0400
0C00
3F00
ENDCHAR

STARTCHAR afii10087
ENCODING 229
SWIDTH 552 0
DWIDTH 14 0
BBX 13 11 0 0
BITMAP
3C18
0E38
0640
0380
0300
0300
0300
0580
0990
D0F0
E0E0
ENDCHAR

STARTCHAR afii10088
ENCODING 230
SWIDTH 500 0
DWIDTH 13 0
BBX 11 16 1 -5
BITMAP
7060
B0C0
B0C0
20C0
6180
6180
6380
C500
CB20
D340
E380
0080
0100
0180
0100
0200
ENDCHAR

STARTCHAR afii10089
ENCODING 231
SWIDTH 471 0
DWIDTH 12 0
BBX 11 11 0 0
BITMAP
F060
30C0
30C0
60C0
6080
6380
3D80
0180
0320
0340
0380
ENDCHAR

STARTCHAR afii10090
ENCODING 232
SWIDTH 756 0
DWIDTH 19 0
BBX 18 11 1 0
BITMAP
7060C0
B0E180
B0C180
20C180
61C300
618700
628700
C70E00
CB1640
D36680
E38700
ENDCHAR

STARTCHAR afii10091
ENCODING 233
SWIDTH 756 0
DWIDTH 19 0
BBX 17 16 1 -5
BITMAP
706180
B0C300
B0C300
20C300
618600
618600
638E00
C71400
CB2480
D34D00
E38E00
000200
000400
000600
000400
000800
ENDCHAR

STARTCHAR afii10092
ENCODING 234
SWIDTH 509 0
DWIDTH 13 0
BBX 11 11 1 0
BITMAP
7C00
7C00
8C00
0800
1BC0
1C60
3860
3060
30C0
1180
0E00
ENDCHAR

STARTCHAR afii10093
ENCODING 235
SWIDTH 648 0
DWIDTH 16 0
BBX 15 11 1 0
BITMAP
1806
F03C
300C
600C
6F08
7198
E198
C198
C332
4634
3838
ENDCHAR

STARTCHAR afii10094
ENCODING 236
SWIDTH 441 0
DWIDTH 11 0
BBX 9 11 1 0
BITMAP
1800
F000
3000
6000
6F00
7180
E180
C180
C300
4600
3800
ENDCHAR

STARTCHAR afii10095
ENCODING 237
SWIDTH 437 0
DWIDTH 11 0
BBX 9 11 1 0
BITMAP
2E00
6300
4180
0180
0180
1F80
0380
0300
8700
8E00
7800
ENDCHAR

STARTCHAR afii10096
ENCODING 238
SWIDTH 706 0
DWIDTH 18 0
BBX 17 11 0 0
BITMAP
7C1E00
182100
18C180
18C180
318180
3F8180
330300
630300
630600
618C00
C0F000
ENDCHAR

STARTCHAR afii10097
ENCODING 239
SWIDTH 474 0
DWIDTH 12 0
BBX 12 11 -1 0
BITMAP
07F0
0C60
1860
1860
1840
07C0
0CC0
18C0
3190
71A0
E1C0
ENDCHAR

STARTCHAR afii61352
ENCODING 240
SWIDTH 1043 0
DWIDTH 26 0
BBX 26 17 -1 0
BITMAP
03C07000
00C0F000
01E09000
01608000
01610300
01610C80
027118C0
023118C0
023230C0
043A3180
043A3180
041C1300
041C0C00
081C0000
E8080000
F0087F00
60087E00
ENDCHAR

STARTCHAR afii10071
ENCODING 241
SWIDTH 438 0
DWIDTH 11 0
BBX 11 16 1 0
BITMAP
0440
0EE0
0440
0000
0000
0780
08C0
30C0
2180
6300
FC00
C000
C000
C180
E300
7C00
ENDCHAR

STARTCHAR afii10099
ENCODING 242
SWIDTH 485 0
DWIDTH 12 0
BBX 11 23 0 -5
BITMAP
0600
1E00
0400
1FC0
0C00
0C00
1800
19E0
1A60
3460
3460
3860
30C0
70C0
60C0
6180
C180
C300
0300
0600
0400
1800
2000
ENDCHAR

STARTCHAR afii10100
ENCODING 243
SWIDTH 402 0
DWIDTH 10 0
BBX 12 17 0 0
BITMAP
0070
00C0
0180
0600
0000
0000
1FE0
1C40
1840
1800
1800
3000
3000
3000
6000
6000
F000
ENDCHAR

STARTCHAR afii10101
ENCODING 244
SWIDTH 434 0
DWIDTH 11 0
BBX 10 11 1 0
BITMAP
07C0
18C0
3040
6000
6000
FE00
C000
C000
C100
E200
3C00
ENDCHAR

STARTCHAR afii10102
ENCODING 245
SWIDTH 385 0
DWIDTH 10 0
BBX 10 11 0 0
BITMAP
0740
0880
1880
1880
0C00
0600
0700
4300
4300
6200
9C00
ENDCHAR

STARTCHAR afii10103
ENCODING 246
SWIDTH 271 0
DWIDTH 7 0
BBX 6 16 1 0
BITMAP
08
1C
08
00
00
18
F0
30
30
20
60
60
40
C8
D0
E0
ENDCHAR

STARTCHAR afii10104
ENCODING 247
SWIDTH 271 0
DWIDTH 7 0
BBX 8 16 1 0
BITMAP
22
77
22
00
00
18
F0
30
30
30
60
60
60
C8
D0
E0
ENDCHAR

STARTCHAR afii10105
ENCODING 248
SWIDTH 271 0
DWIDTH 7 0
BBX 11 21 -4 -5
BITMAP
0040
00E0
0040
0000
0000
00C0
0380
0180
0180
0180
0300
0300
0300
0200
0600
0600
0400
0C00
0800
D800
6000
ENDCHAR

STARTCHAR afii10106
ENCODING 249
SWIDTH 679 0
DWIDTH 17 0
BBX 17 11 -1 0
BITMAP
00F000
013000
023000
026000
046F00
047180
086180
08C180
10C300
F04600
403800
ENDCHAR

STARTCHAR afii10107
ENCODING 250
SWIDTH 719 0
DWIDTH 18 0
BBX 16 11 1 0
BITMAP
19E0
7060
3060
30C0
20DE
7FE3
60C3
4183
C186
C08C
C070
ENDCHAR

STARTCHAR afii10108
ENCODING 251
SWIDTH 500 0
DWIDTH 13 0
BBX 11 18 0 0
BITMAP
0600
1E00
0400
1FC0
0C00
0C00
1800
18E0
1960
1660
3460
38C0
30C0
70C0
6080
61A0
C1E0
C180
ENDCHAR

STARTCHAR afii10109
ENCODING 252
SWIDTH 498 0
DWIDTH 12 0
BBX 12 17 0 0
BITMAP
0070
00C0
0180
0200
0000
0000
0C70
38B0
1880
1900
3A00
3600
3300
6300
6180
6180
C0E0
ENDCHAR

STARTCHAR section
ENCODING 253
SWIDTH 521 0
DWIDTH 13 0
BBX 13 23 0 -5
BITMAP
00E0
0118
0218
0208
0200
0200
0300
0180
07C0
08C0
1060
1060
1820
1820
0C40
0780
0300
0300
0100
C100
C100
6200
3C00
ENDCHAR

STARTCHAR afii10110
ENCODING 254
SWIDTH 500 0
DWIDTH 13 0
BBX 13 21 -1 -5
BITMAP
0188
0190
01E0
0000
0000
0610
1E18
0608
0608
0610
0610
0620
0640
0280
0280
0300
0200
0400
0800
5000
E000
ENDCHAR

STARTCHAR afii10193
ENCODING 255
SWIDTH 500 0
DWIDTH 13 0
BBX 12 16 1 -5
BITMAP
7030
B060
B060
3060
60C0
61C0
61C0
4380
C5A0
C9A0
F1C0
2000
4000
6000
4000
8000
ENDCHAR
ENDFONT
